G04 #@! TF.GenerationSoftware,KiCad,Pcbnew,8.0.6*
G04 #@! TF.CreationDate,2024-12-31T22:42:56-06:00*
G04 #@! TF.ProjectId,Diet-OptoTap,44696574-2d4f-4707-946f-5461702e6b69,rev?*
G04 #@! TF.SameCoordinates,Original*
G04 #@! TF.FileFunction,Legend,Bot*
G04 #@! TF.FilePolarity,Positive*
%FSLAX46Y46*%
G04 Gerber Fmt 4.6, Leading zero omitted, Abs format (unit mm)*
G04 Created by KiCad (PCBNEW 8.0.6) date 2024-12-31 22:42:56*
%MOMM*%
%LPD*%
G01*
G04 APERTURE LIST*
%ADD10C,0.150000*%
%ADD11C,0.100000*%
%ADD12C,0.120000*%
%ADD13O,1.500000X1.050000*%
%ADD14C,3.200000*%
%ADD15R,1.700000X1.700000*%
%ADD16O,1.700000X1.700000*%
G04 APERTURE END LIST*
D10*
X166535713Y-95573866D02*
X165773809Y-95573866D01*
X166154761Y-95954819D02*
X166154761Y-95192914D01*
X164821428Y-94954819D02*
X165297618Y-94954819D01*
X165297618Y-94954819D02*
X165345237Y-95431009D01*
X165345237Y-95431009D02*
X165297618Y-95383390D01*
X165297618Y-95383390D02*
X165202380Y-95335771D01*
X165202380Y-95335771D02*
X164964285Y-95335771D01*
X164964285Y-95335771D02*
X164869047Y-95383390D01*
X164869047Y-95383390D02*
X164821428Y-95431009D01*
X164821428Y-95431009D02*
X164773809Y-95526247D01*
X164773809Y-95526247D02*
X164773809Y-95764342D01*
X164773809Y-95764342D02*
X164821428Y-95859580D01*
X164821428Y-95859580D02*
X164869047Y-95907200D01*
X164869047Y-95907200D02*
X164964285Y-95954819D01*
X164964285Y-95954819D02*
X165202380Y-95954819D01*
X165202380Y-95954819D02*
X165297618Y-95907200D01*
X165297618Y-95907200D02*
X165345237Y-95859580D01*
X164488094Y-94954819D02*
X164154761Y-95954819D01*
X164154761Y-95954819D02*
X163821428Y-94954819D01*
X154761904Y-95002438D02*
X154857142Y-94954819D01*
X154857142Y-94954819D02*
X154999999Y-94954819D01*
X154999999Y-94954819D02*
X155142856Y-95002438D01*
X155142856Y-95002438D02*
X155238094Y-95097676D01*
X155238094Y-95097676D02*
X155285713Y-95192914D01*
X155285713Y-95192914D02*
X155333332Y-95383390D01*
X155333332Y-95383390D02*
X155333332Y-95526247D01*
X155333332Y-95526247D02*
X155285713Y-95716723D01*
X155285713Y-95716723D02*
X155238094Y-95811961D01*
X155238094Y-95811961D02*
X155142856Y-95907200D01*
X155142856Y-95907200D02*
X154999999Y-95954819D01*
X154999999Y-95954819D02*
X154904761Y-95954819D01*
X154904761Y-95954819D02*
X154761904Y-95907200D01*
X154761904Y-95907200D02*
X154714285Y-95859580D01*
X154714285Y-95859580D02*
X154714285Y-95526247D01*
X154714285Y-95526247D02*
X154904761Y-95526247D01*
X154285713Y-95954819D02*
X154285713Y-94954819D01*
X154285713Y-94954819D02*
X153714285Y-95954819D01*
X153714285Y-95954819D02*
X153714285Y-94954819D01*
X153238094Y-95954819D02*
X153238094Y-94954819D01*
X153238094Y-94954819D02*
X152999999Y-94954819D01*
X152999999Y-94954819D02*
X152857142Y-95002438D01*
X152857142Y-95002438D02*
X152761904Y-95097676D01*
X152761904Y-95097676D02*
X152714285Y-95192914D01*
X152714285Y-95192914D02*
X152666666Y-95383390D01*
X152666666Y-95383390D02*
X152666666Y-95526247D01*
X152666666Y-95526247D02*
X152714285Y-95716723D01*
X152714285Y-95716723D02*
X152761904Y-95811961D01*
X152761904Y-95811961D02*
X152857142Y-95907200D01*
X152857142Y-95907200D02*
X152999999Y-95954819D01*
X152999999Y-95954819D02*
X153238094Y-95954819D01*
X160261904Y-99454819D02*
X160261904Y-100264342D01*
X160261904Y-100264342D02*
X160214285Y-100359580D01*
X160214285Y-100359580D02*
X160166666Y-100407200D01*
X160166666Y-100407200D02*
X160071428Y-100454819D01*
X160071428Y-100454819D02*
X159880952Y-100454819D01*
X159880952Y-100454819D02*
X159785714Y-100407200D01*
X159785714Y-100407200D02*
X159738095Y-100359580D01*
X159738095Y-100359580D02*
X159690476Y-100264342D01*
X159690476Y-100264342D02*
X159690476Y-99454819D01*
X158690476Y-100454819D02*
X159261904Y-100454819D01*
X158976190Y-100454819D02*
X158976190Y-99454819D01*
X158976190Y-99454819D02*
X159071428Y-99597676D01*
X159071428Y-99597676D02*
X159166666Y-99692914D01*
X159166666Y-99692914D02*
X159261904Y-99740533D01*
D11*
X165875000Y-97450000D02*
X153375000Y-97450000D01*
X153375000Y-102550000D01*
X165875000Y-102550000D01*
X165875000Y-97450000D01*
D12*
X155755000Y-94170000D02*
X157085000Y-94170000D01*
X155755000Y-95500000D02*
X155755000Y-94170000D01*
X158355000Y-96830000D02*
X158355000Y-94170000D01*
X163495000Y-94170000D02*
X158355000Y-94170000D01*
X163495000Y-96830000D02*
X158355000Y-96830000D01*
X163495000Y-96830000D02*
X163495000Y-94170000D01*
%LPC*%
D13*
X155025000Y-98750000D03*
X155025000Y-101250000D03*
X164225000Y-101250000D03*
X164225000Y-100000000D03*
X164225000Y-98750000D03*
D14*
X150000000Y-100000000D03*
X169250000Y-100000000D03*
D15*
X157085000Y-95500000D03*
D16*
X159625000Y-95500000D03*
X162165000Y-95500000D03*
%LPD*%
M02*
