G04 #@! TF.GenerationSoftware,KiCad,Pcbnew,8.0.6*
G04 #@! TF.CreationDate,2024-12-31T22:42:56-06:00*
G04 #@! TF.ProjectId,Diet-OptoTap,44696574-2d4f-4707-946f-5461702e6b69,rev?*
G04 #@! TF.SameCoordinates,Original*
G04 #@! TF.FileFunction,Copper,L1,Top*
G04 #@! TF.FilePolarity,Positive*
%FSLAX46Y46*%
G04 Gerber Fmt 4.6, Leading zero omitted, Abs format (unit mm)*
G04 Created by KiCad (PCBNEW 8.0.6) date 2024-12-31 22:42:56*
%MOMM*%
%LPD*%
G01*
G04 APERTURE LIST*
G04 Aperture macros list*
%AMRoundRect*
0 Rectangle with rounded corners*
0 $1 Rounding radius*
0 $2 $3 $4 $5 $6 $7 $8 $9 X,Y pos of 4 corners*
0 Add a 4 corners polygon primitive as box body*
4,1,4,$2,$3,$4,$5,$6,$7,$8,$9,$2,$3,0*
0 Add four circle primitives for the rounded corners*
1,1,$1+$1,$2,$3*
1,1,$1+$1,$4,$5*
1,1,$1+$1,$6,$7*
1,1,$1+$1,$8,$9*
0 Add four rect primitives between the rounded corners*
20,1,$1+$1,$2,$3,$4,$5,0*
20,1,$1+$1,$4,$5,$6,$7,0*
20,1,$1+$1,$6,$7,$8,$9,0*
20,1,$1+$1,$8,$9,$2,$3,0*%
G04 Aperture macros list end*
G04 #@! TA.AperFunction,ComponentPad*
%ADD10O,1.500000X1.050000*%
G04 #@! TD*
G04 #@! TA.AperFunction,SMDPad,CuDef*
%ADD11RoundRect,0.237500X0.250000X0.237500X-0.250000X0.237500X-0.250000X-0.237500X0.250000X-0.237500X0*%
G04 #@! TD*
G04 #@! TA.AperFunction,SMDPad,CuDef*
%ADD12RoundRect,0.237500X0.287500X0.237500X-0.287500X0.237500X-0.287500X-0.237500X0.287500X-0.237500X0*%
G04 #@! TD*
G04 #@! TA.AperFunction,SMDPad,CuDef*
%ADD13RoundRect,0.237500X0.237500X-0.300000X0.237500X0.300000X-0.237500X0.300000X-0.237500X-0.300000X0*%
G04 #@! TD*
G04 #@! TA.AperFunction,ComponentPad*
%ADD14R,1.700000X1.700000*%
G04 #@! TD*
G04 #@! TA.AperFunction,ComponentPad*
%ADD15O,1.700000X1.700000*%
G04 #@! TD*
G04 #@! TA.AperFunction,ViaPad*
%ADD16C,0.600000*%
G04 #@! TD*
G04 #@! TA.AperFunction,Conductor*
%ADD17C,0.500000*%
G04 #@! TD*
G04 #@! TA.AperFunction,Conductor*
%ADD18C,0.200000*%
G04 #@! TD*
G04 APERTURE END LIST*
D10*
X155025000Y-98750000D03*
X155025000Y-101250000D03*
X164225000Y-101250000D03*
X164225000Y-100000000D03*
X164225000Y-98750000D03*
D11*
X159662500Y-100000000D03*
X157837500Y-100000000D03*
D12*
X159625000Y-98250000D03*
X157875000Y-98250000D03*
D11*
X159662500Y-101750000D03*
X157837500Y-101750000D03*
D13*
X164250000Y-97225000D03*
X164250000Y-95500000D03*
D14*
X157085000Y-95500000D03*
D15*
X159625000Y-95500000D03*
X162165000Y-95500000D03*
D16*
X163250000Y-96475000D03*
D17*
X164225000Y-95500000D02*
X163250000Y-96475000D01*
X164250000Y-95500000D02*
X164225000Y-95500000D01*
X164225000Y-98750000D02*
X165000000Y-98750000D01*
X165000000Y-98750000D02*
X165750000Y-99500000D01*
X165750000Y-99500000D02*
X165750000Y-102000000D01*
X165750000Y-102000000D02*
X165250000Y-102500000D01*
X165250000Y-102500000D02*
X163250000Y-102500000D01*
X163250000Y-102500000D02*
X162500000Y-101750000D01*
X162500000Y-101750000D02*
X159662500Y-101750000D01*
X159625000Y-98250000D02*
X161062500Y-98250000D01*
X161062500Y-98250000D02*
X162812500Y-100000000D01*
X162812500Y-100000000D02*
X164225000Y-100000000D01*
X164250000Y-97225000D02*
X164250000Y-98725000D01*
X164250000Y-98725000D02*
X164225000Y-98750000D01*
X162165000Y-95500000D02*
X162165000Y-96665000D01*
X162725000Y-97225000D02*
X164250000Y-97225000D01*
X162165000Y-96665000D02*
X162725000Y-97225000D01*
X159662500Y-100000000D02*
X159662500Y-101750000D01*
D18*
X157875000Y-99962500D02*
X157837500Y-100000000D01*
D17*
X157875000Y-98250000D02*
X157875000Y-99962500D01*
X159625000Y-95500000D02*
X159625000Y-98250000D01*
X156500000Y-101250000D02*
X157000000Y-101750000D01*
X157000000Y-101750000D02*
X157837500Y-101750000D01*
X155025000Y-101250000D02*
X156500000Y-101250000D01*
M02*
