G04 #@! TF.GenerationSoftware,KiCad,Pcbnew,8.0.6*
G04 #@! TF.CreationDate,2024-12-31T22:42:56-06:00*
G04 #@! TF.ProjectId,Diet-OptoTap,44696574-2d4f-4707-946f-5461702e6b69,rev?*
G04 #@! TF.SameCoordinates,Original*
G04 #@! TF.FileFunction,Legend,Top*
G04 #@! TF.FilePolarity,Positive*
%FSLAX46Y46*%
G04 Gerber Fmt 4.6, Leading zero omitted, Abs format (unit mm)*
G04 Created by KiCad (PCBNEW 8.0.6) date 2024-12-31 22:42:56*
%MOMM*%
%LPD*%
G01*
G04 APERTURE LIST*
G04 Aperture macros list*
%AMRoundRect*
0 Rectangle with rounded corners*
0 $1 Rounding radius*
0 $2 $3 $4 $5 $6 $7 $8 $9 X,Y pos of 4 corners*
0 Add a 4 corners polygon primitive as box body*
4,1,4,$2,$3,$4,$5,$6,$7,$8,$9,$2,$3,0*
0 Add four circle primitives for the rounded corners*
1,1,$1+$1,$2,$3*
1,1,$1+$1,$4,$5*
1,1,$1+$1,$6,$7*
1,1,$1+$1,$8,$9*
0 Add four rect primitives between the rounded corners*
20,1,$1+$1,$2,$3,$4,$5,0*
20,1,$1+$1,$4,$5,$6,$7,0*
20,1,$1+$1,$6,$7,$8,$9,0*
20,1,$1+$1,$8,$9,$2,$3,0*%
G04 Aperture macros list end*
%ADD10C,0.150000*%
%ADD11C,0.120000*%
%ADD12O,1.500000X1.050000*%
%ADD13C,3.200000*%
%ADD14RoundRect,0.237500X0.250000X0.237500X-0.250000X0.237500X-0.250000X-0.237500X0.250000X-0.237500X0*%
%ADD15RoundRect,0.237500X0.287500X0.237500X-0.287500X0.237500X-0.287500X-0.237500X0.287500X-0.237500X0*%
%ADD16RoundRect,0.237500X0.237500X-0.300000X0.237500X0.300000X-0.237500X0.300000X-0.237500X-0.300000X0*%
%ADD17R,1.700000X1.700000*%
%ADD18O,1.700000X1.700000*%
G04 APERTURE END LIST*
D10*
X148329889Y-95899847D02*
X148329889Y-94899847D01*
X148329889Y-94899847D02*
X148508460Y-94899847D01*
X148508460Y-94899847D02*
X148615603Y-94947466D01*
X148615603Y-94947466D02*
X148687032Y-95042704D01*
X148687032Y-95042704D02*
X148722746Y-95137942D01*
X148722746Y-95137942D02*
X148758460Y-95328418D01*
X148758460Y-95328418D02*
X148758460Y-95471275D01*
X148758460Y-95471275D02*
X148722746Y-95661751D01*
X148722746Y-95661751D02*
X148687032Y-95756989D01*
X148687032Y-95756989D02*
X148615603Y-95852228D01*
X148615603Y-95852228D02*
X148508460Y-95899847D01*
X148508460Y-95899847D02*
X148329889Y-95899847D01*
X149079889Y-95899847D02*
X149079889Y-95233180D01*
X149079889Y-94899847D02*
X149044175Y-94947466D01*
X149044175Y-94947466D02*
X149079889Y-94995085D01*
X149079889Y-94995085D02*
X149115603Y-94947466D01*
X149115603Y-94947466D02*
X149079889Y-94899847D01*
X149079889Y-94899847D02*
X149079889Y-94995085D01*
X149722746Y-95852228D02*
X149651318Y-95899847D01*
X149651318Y-95899847D02*
X149508461Y-95899847D01*
X149508461Y-95899847D02*
X149437032Y-95852228D01*
X149437032Y-95852228D02*
X149401318Y-95756989D01*
X149401318Y-95756989D02*
X149401318Y-95376037D01*
X149401318Y-95376037D02*
X149437032Y-95280799D01*
X149437032Y-95280799D02*
X149508461Y-95233180D01*
X149508461Y-95233180D02*
X149651318Y-95233180D01*
X149651318Y-95233180D02*
X149722746Y-95280799D01*
X149722746Y-95280799D02*
X149758461Y-95376037D01*
X149758461Y-95376037D02*
X149758461Y-95471275D01*
X149758461Y-95471275D02*
X149401318Y-95566513D01*
X149972746Y-95233180D02*
X150258460Y-95233180D01*
X150079889Y-94899847D02*
X150079889Y-95756989D01*
X150079889Y-95756989D02*
X150115603Y-95852228D01*
X150115603Y-95852228D02*
X150187032Y-95899847D01*
X150187032Y-95899847D02*
X150258460Y-95899847D01*
X151222746Y-94899847D02*
X151365603Y-94899847D01*
X151365603Y-94899847D02*
X151437032Y-94947466D01*
X151437032Y-94947466D02*
X151508460Y-95042704D01*
X151508460Y-95042704D02*
X151544175Y-95233180D01*
X151544175Y-95233180D02*
X151544175Y-95566513D01*
X151544175Y-95566513D02*
X151508460Y-95756989D01*
X151508460Y-95756989D02*
X151437032Y-95852228D01*
X151437032Y-95852228D02*
X151365603Y-95899847D01*
X151365603Y-95899847D02*
X151222746Y-95899847D01*
X151222746Y-95899847D02*
X151151318Y-95852228D01*
X151151318Y-95852228D02*
X151079889Y-95756989D01*
X151079889Y-95756989D02*
X151044175Y-95566513D01*
X151044175Y-95566513D02*
X151044175Y-95233180D01*
X151044175Y-95233180D02*
X151079889Y-95042704D01*
X151079889Y-95042704D02*
X151151318Y-94947466D01*
X151151318Y-94947466D02*
X151222746Y-94899847D01*
X151865603Y-95233180D02*
X151865603Y-96233180D01*
X151865603Y-95280799D02*
X151937032Y-95233180D01*
X151937032Y-95233180D02*
X152079889Y-95233180D01*
X152079889Y-95233180D02*
X152151317Y-95280799D01*
X152151317Y-95280799D02*
X152187032Y-95328418D01*
X152187032Y-95328418D02*
X152222746Y-95423656D01*
X152222746Y-95423656D02*
X152222746Y-95709370D01*
X152222746Y-95709370D02*
X152187032Y-95804608D01*
X152187032Y-95804608D02*
X152151317Y-95852228D01*
X152151317Y-95852228D02*
X152079889Y-95899847D01*
X152079889Y-95899847D02*
X151937032Y-95899847D01*
X151937032Y-95899847D02*
X151865603Y-95852228D01*
X152437031Y-95233180D02*
X152722745Y-95233180D01*
X152544174Y-94899847D02*
X152544174Y-95756989D01*
X152544174Y-95756989D02*
X152579888Y-95852228D01*
X152579888Y-95852228D02*
X152651317Y-95899847D01*
X152651317Y-95899847D02*
X152722745Y-95899847D01*
X153079888Y-95899847D02*
X153008459Y-95852228D01*
X153008459Y-95852228D02*
X152972745Y-95804608D01*
X152972745Y-95804608D02*
X152937031Y-95709370D01*
X152937031Y-95709370D02*
X152937031Y-95423656D01*
X152937031Y-95423656D02*
X152972745Y-95328418D01*
X152972745Y-95328418D02*
X153008459Y-95280799D01*
X153008459Y-95280799D02*
X153079888Y-95233180D01*
X153079888Y-95233180D02*
X153187031Y-95233180D01*
X153187031Y-95233180D02*
X153258459Y-95280799D01*
X153258459Y-95280799D02*
X153294174Y-95328418D01*
X153294174Y-95328418D02*
X153329888Y-95423656D01*
X153329888Y-95423656D02*
X153329888Y-95709370D01*
X153329888Y-95709370D02*
X153294174Y-95804608D01*
X153294174Y-95804608D02*
X153258459Y-95852228D01*
X153258459Y-95852228D02*
X153187031Y-95899847D01*
X153187031Y-95899847D02*
X153079888Y-95899847D01*
X153544173Y-94899847D02*
X153972745Y-94899847D01*
X153758459Y-95899847D02*
X153758459Y-94899847D01*
X154544174Y-95899847D02*
X154544174Y-95376037D01*
X154544174Y-95376037D02*
X154508459Y-95280799D01*
X154508459Y-95280799D02*
X154437031Y-95233180D01*
X154437031Y-95233180D02*
X154294174Y-95233180D01*
X154294174Y-95233180D02*
X154222745Y-95280799D01*
X154544174Y-95852228D02*
X154472745Y-95899847D01*
X154472745Y-95899847D02*
X154294174Y-95899847D01*
X154294174Y-95899847D02*
X154222745Y-95852228D01*
X154222745Y-95852228D02*
X154187031Y-95756989D01*
X154187031Y-95756989D02*
X154187031Y-95661751D01*
X154187031Y-95661751D02*
X154222745Y-95566513D01*
X154222745Y-95566513D02*
X154294174Y-95518894D01*
X154294174Y-95518894D02*
X154472745Y-95518894D01*
X154472745Y-95518894D02*
X154544174Y-95471275D01*
X154901316Y-95233180D02*
X154901316Y-96233180D01*
X154901316Y-95280799D02*
X154972745Y-95233180D01*
X154972745Y-95233180D02*
X155115602Y-95233180D01*
X155115602Y-95233180D02*
X155187030Y-95280799D01*
X155187030Y-95280799D02*
X155222745Y-95328418D01*
X155222745Y-95328418D02*
X155258459Y-95423656D01*
X155258459Y-95423656D02*
X155258459Y-95709370D01*
X155258459Y-95709370D02*
X155222745Y-95804608D01*
X155222745Y-95804608D02*
X155187030Y-95852228D01*
X155187030Y-95852228D02*
X155115602Y-95899847D01*
X155115602Y-95899847D02*
X154972745Y-95899847D01*
X154972745Y-95899847D02*
X154901316Y-95852228D01*
X154222743Y-96843124D02*
X154401315Y-97509791D01*
X154401315Y-97509791D02*
X154579886Y-96843124D01*
X155258458Y-97509791D02*
X154829887Y-97509791D01*
X155044172Y-97509791D02*
X155044172Y-96509791D01*
X155044172Y-96509791D02*
X154972744Y-96652648D01*
X154972744Y-96652648D02*
X154901315Y-96747886D01*
X154901315Y-96747886D02*
X154829887Y-96795505D01*
X165886904Y-100752438D02*
X165791666Y-100704819D01*
X165791666Y-100704819D02*
X165648809Y-100704819D01*
X165648809Y-100704819D02*
X165505952Y-100752438D01*
X165505952Y-100752438D02*
X165410714Y-100847676D01*
X165410714Y-100847676D02*
X165363095Y-100942914D01*
X165363095Y-100942914D02*
X165315476Y-101133390D01*
X165315476Y-101133390D02*
X165315476Y-101276247D01*
X165315476Y-101276247D02*
X165363095Y-101466723D01*
X165363095Y-101466723D02*
X165410714Y-101561961D01*
X165410714Y-101561961D02*
X165505952Y-101657200D01*
X165505952Y-101657200D02*
X165648809Y-101704819D01*
X165648809Y-101704819D02*
X165744047Y-101704819D01*
X165744047Y-101704819D02*
X165886904Y-101657200D01*
X165886904Y-101657200D02*
X165934523Y-101609580D01*
X165934523Y-101609580D02*
X165934523Y-101276247D01*
X165934523Y-101276247D02*
X165744047Y-101276247D01*
X153363095Y-99204819D02*
X153363095Y-98204819D01*
X153934523Y-99204819D02*
X153505952Y-98633390D01*
X153934523Y-98204819D02*
X153363095Y-98776247D01*
X165291667Y-98204819D02*
X165625000Y-99204819D01*
X165625000Y-99204819D02*
X165958333Y-98204819D01*
X165529762Y-99454819D02*
X165720238Y-99454819D01*
X165720238Y-99454819D02*
X165815476Y-99502438D01*
X165815476Y-99502438D02*
X165910714Y-99597676D01*
X165910714Y-99597676D02*
X165958333Y-99788152D01*
X165958333Y-99788152D02*
X165958333Y-100121485D01*
X165958333Y-100121485D02*
X165910714Y-100311961D01*
X165910714Y-100311961D02*
X165815476Y-100407200D01*
X165815476Y-100407200D02*
X165720238Y-100454819D01*
X165720238Y-100454819D02*
X165529762Y-100454819D01*
X165529762Y-100454819D02*
X165434524Y-100407200D01*
X165434524Y-100407200D02*
X165339286Y-100311961D01*
X165339286Y-100311961D02*
X165291667Y-100121485D01*
X165291667Y-100121485D02*
X165291667Y-99788152D01*
X165291667Y-99788152D02*
X165339286Y-99597676D01*
X165339286Y-99597676D02*
X165434524Y-99502438D01*
X165434524Y-99502438D02*
X165529762Y-99454819D01*
X153386905Y-101419104D02*
X153863095Y-101419104D01*
X153291667Y-101704819D02*
X153625000Y-100704819D01*
X153625000Y-100704819D02*
X153958333Y-101704819D01*
X161245833Y-100454819D02*
X160912500Y-99978628D01*
X160674405Y-100454819D02*
X160674405Y-99454819D01*
X160674405Y-99454819D02*
X161055357Y-99454819D01*
X161055357Y-99454819D02*
X161150595Y-99502438D01*
X161150595Y-99502438D02*
X161198214Y-99550057D01*
X161198214Y-99550057D02*
X161245833Y-99645295D01*
X161245833Y-99645295D02*
X161245833Y-99788152D01*
X161245833Y-99788152D02*
X161198214Y-99883390D01*
X161198214Y-99883390D02*
X161150595Y-99931009D01*
X161150595Y-99931009D02*
X161055357Y-99978628D01*
X161055357Y-99978628D02*
X160674405Y-99978628D01*
X161626786Y-99550057D02*
X161674405Y-99502438D01*
X161674405Y-99502438D02*
X161769643Y-99454819D01*
X161769643Y-99454819D02*
X162007738Y-99454819D01*
X162007738Y-99454819D02*
X162102976Y-99502438D01*
X162102976Y-99502438D02*
X162150595Y-99550057D01*
X162150595Y-99550057D02*
X162198214Y-99645295D01*
X162198214Y-99645295D02*
X162198214Y-99740533D01*
X162198214Y-99740533D02*
X162150595Y-99883390D01*
X162150595Y-99883390D02*
X161579167Y-100454819D01*
X161579167Y-100454819D02*
X162198214Y-100454819D01*
X160636905Y-98704819D02*
X160636905Y-97704819D01*
X160636905Y-97704819D02*
X160875000Y-97704819D01*
X160875000Y-97704819D02*
X161017857Y-97752438D01*
X161017857Y-97752438D02*
X161113095Y-97847676D01*
X161113095Y-97847676D02*
X161160714Y-97942914D01*
X161160714Y-97942914D02*
X161208333Y-98133390D01*
X161208333Y-98133390D02*
X161208333Y-98276247D01*
X161208333Y-98276247D02*
X161160714Y-98466723D01*
X161160714Y-98466723D02*
X161113095Y-98561961D01*
X161113095Y-98561961D02*
X161017857Y-98657200D01*
X161017857Y-98657200D02*
X160875000Y-98704819D01*
X160875000Y-98704819D02*
X160636905Y-98704819D01*
X162160714Y-98704819D02*
X161589286Y-98704819D01*
X161875000Y-98704819D02*
X161875000Y-97704819D01*
X161875000Y-97704819D02*
X161779762Y-97847676D01*
X161779762Y-97847676D02*
X161684524Y-97942914D01*
X161684524Y-97942914D02*
X161589286Y-97990533D01*
X161245833Y-102204819D02*
X160912500Y-101728628D01*
X160674405Y-102204819D02*
X160674405Y-101204819D01*
X160674405Y-101204819D02*
X161055357Y-101204819D01*
X161055357Y-101204819D02*
X161150595Y-101252438D01*
X161150595Y-101252438D02*
X161198214Y-101300057D01*
X161198214Y-101300057D02*
X161245833Y-101395295D01*
X161245833Y-101395295D02*
X161245833Y-101538152D01*
X161245833Y-101538152D02*
X161198214Y-101633390D01*
X161198214Y-101633390D02*
X161150595Y-101681009D01*
X161150595Y-101681009D02*
X161055357Y-101728628D01*
X161055357Y-101728628D02*
X160674405Y-101728628D01*
X162198214Y-102204819D02*
X161626786Y-102204819D01*
X161912500Y-102204819D02*
X161912500Y-101204819D01*
X161912500Y-101204819D02*
X161817262Y-101347676D01*
X161817262Y-101347676D02*
X161722024Y-101442914D01*
X161722024Y-101442914D02*
X161626786Y-101490533D01*
X165833333Y-96722080D02*
X165785714Y-96769700D01*
X165785714Y-96769700D02*
X165642857Y-96817319D01*
X165642857Y-96817319D02*
X165547619Y-96817319D01*
X165547619Y-96817319D02*
X165404762Y-96769700D01*
X165404762Y-96769700D02*
X165309524Y-96674461D01*
X165309524Y-96674461D02*
X165261905Y-96579223D01*
X165261905Y-96579223D02*
X165214286Y-96388747D01*
X165214286Y-96388747D02*
X165214286Y-96245890D01*
X165214286Y-96245890D02*
X165261905Y-96055414D01*
X165261905Y-96055414D02*
X165309524Y-95960176D01*
X165309524Y-95960176D02*
X165404762Y-95864938D01*
X165404762Y-95864938D02*
X165547619Y-95817319D01*
X165547619Y-95817319D02*
X165642857Y-95817319D01*
X165642857Y-95817319D02*
X165785714Y-95864938D01*
X165785714Y-95864938D02*
X165833333Y-95912557D01*
X166785714Y-96817319D02*
X166214286Y-96817319D01*
X166500000Y-96817319D02*
X166500000Y-95817319D01*
X166500000Y-95817319D02*
X166404762Y-95960176D01*
X166404762Y-95960176D02*
X166309524Y-96055414D01*
X166309524Y-96055414D02*
X166214286Y-96103033D01*
D11*
X159004724Y-99477500D02*
X158495276Y-99477500D01*
X159004724Y-100522500D02*
X158495276Y-100522500D01*
X157950000Y-98985000D02*
X160410000Y-98985000D01*
X160410000Y-97515000D02*
X157950000Y-97515000D01*
X160410000Y-98985000D02*
X160410000Y-97515000D01*
X159004724Y-101227500D02*
X158495276Y-101227500D01*
X159004724Y-102272500D02*
X158495276Y-102272500D01*
X164760000Y-96508767D02*
X164760000Y-96216233D01*
X163740000Y-96508767D02*
X163740000Y-96216233D01*
%LPC*%
D12*
X155025000Y-98750000D03*
X155025000Y-101250000D03*
X164225000Y-101250000D03*
X164225000Y-100000000D03*
X164225000Y-98750000D03*
D13*
X150000000Y-100000000D03*
D14*
X159662500Y-100000000D03*
X157837500Y-100000000D03*
D15*
X159625000Y-98250000D03*
X157875000Y-98250000D03*
D14*
X159662500Y-101750000D03*
X157837500Y-101750000D03*
D13*
X169250000Y-100000000D03*
D16*
X164250000Y-97225000D03*
X164250000Y-95500000D03*
D17*
X157085000Y-95500000D03*
D18*
X159625000Y-95500000D03*
X162165000Y-95500000D03*
%LPD*%
M02*
