G04 #@! TF.GenerationSoftware,KiCad,Pcbnew,8.0.6*
G04 #@! TF.CreationDate,2024-12-31T22:42:56-06:00*
G04 #@! TF.ProjectId,Diet-OptoTap,44696574-2d4f-4707-946f-5461702e6b69,rev?*
G04 #@! TF.SameCoordinates,Original*
G04 #@! TF.FileFunction,Copper,L2,Bot*
G04 #@! TF.FilePolarity,Positive*
%FSLAX46Y46*%
G04 Gerber Fmt 4.6, Leading zero omitted, Abs format (unit mm)*
G04 Created by KiCad (PCBNEW 8.0.6) date 2024-12-31 22:42:56*
%MOMM*%
%LPD*%
G01*
G04 APERTURE LIST*
G04 #@! TA.AperFunction,ComponentPad*
%ADD10O,1.500000X1.050000*%
G04 #@! TD*
G04 #@! TA.AperFunction,ComponentPad*
%ADD11R,1.700000X1.700000*%
G04 #@! TD*
G04 #@! TA.AperFunction,ComponentPad*
%ADD12O,1.700000X1.700000*%
G04 #@! TD*
G04 #@! TA.AperFunction,ViaPad*
%ADD13C,0.600000*%
G04 #@! TD*
G04 APERTURE END LIST*
D10*
X155025000Y-98750000D03*
X155025000Y-101250000D03*
X164225000Y-101250000D03*
X164225000Y-100000000D03*
X164225000Y-98750000D03*
D11*
X157085000Y-95500000D03*
D12*
X159625000Y-95500000D03*
X162165000Y-95500000D03*
D13*
X163250000Y-96475000D03*
G04 #@! TA.AperFunction,Conductor*
G36*
X155738803Y-94270185D02*
G01*
X155784558Y-94322989D01*
X155794502Y-94392147D01*
X155787946Y-94417833D01*
X155741403Y-94542620D01*
X155741401Y-94542627D01*
X155735000Y-94602155D01*
X155735000Y-95250000D01*
X156651988Y-95250000D01*
X156619075Y-95307007D01*
X156585000Y-95434174D01*
X156585000Y-95565826D01*
X156619075Y-95692993D01*
X156651988Y-95750000D01*
X155735000Y-95750000D01*
X155735000Y-96397844D01*
X155741401Y-96457372D01*
X155741403Y-96457379D01*
X155791645Y-96592086D01*
X155791649Y-96592093D01*
X155877809Y-96707187D01*
X155877812Y-96707190D01*
X155992906Y-96793350D01*
X155992913Y-96793354D01*
X156127620Y-96843596D01*
X156127627Y-96843598D01*
X156187155Y-96849999D01*
X156187172Y-96850000D01*
X156835000Y-96850000D01*
X156835000Y-95933012D01*
X156892007Y-95965925D01*
X157019174Y-96000000D01*
X157150826Y-96000000D01*
X157277993Y-95965925D01*
X157335000Y-95933012D01*
X157335000Y-96850000D01*
X157982828Y-96850000D01*
X157982844Y-96849999D01*
X158042372Y-96843598D01*
X158042379Y-96843596D01*
X158177086Y-96793354D01*
X158177093Y-96793350D01*
X158292187Y-96707190D01*
X158292190Y-96707187D01*
X158378350Y-96592093D01*
X158378354Y-96592086D01*
X158428596Y-96457379D01*
X158428598Y-96457372D01*
X158434999Y-96397844D01*
X158435000Y-96397827D01*
X158435000Y-96106312D01*
X158454685Y-96039273D01*
X158507489Y-95993518D01*
X158576647Y-95983574D01*
X158640203Y-96012599D01*
X158670000Y-96051041D01*
X158685325Y-96081819D01*
X158808237Y-96244581D01*
X158958958Y-96381980D01*
X158958960Y-96381982D01*
X159058141Y-96443392D01*
X159132363Y-96489348D01*
X159322544Y-96563024D01*
X159523024Y-96600500D01*
X159523026Y-96600500D01*
X159726974Y-96600500D01*
X159726976Y-96600500D01*
X159927456Y-96563024D01*
X160117637Y-96489348D01*
X160291041Y-96381981D01*
X160441764Y-96244579D01*
X160564673Y-96081821D01*
X160655582Y-95899250D01*
X160711397Y-95703083D01*
X160730215Y-95500000D01*
X160724115Y-95434174D01*
X160711397Y-95296917D01*
X160698048Y-95250000D01*
X160655582Y-95100750D01*
X160655159Y-95099901D01*
X160576225Y-94941379D01*
X160564673Y-94918179D01*
X160505704Y-94840091D01*
X160441762Y-94755418D01*
X160291041Y-94618019D01*
X160291039Y-94618017D01*
X160117642Y-94510655D01*
X160117635Y-94510651D01*
X160064655Y-94490127D01*
X160009253Y-94447554D01*
X159985663Y-94381787D01*
X160001374Y-94313707D01*
X160051398Y-94264928D01*
X160109449Y-94250500D01*
X161680551Y-94250500D01*
X161747590Y-94270185D01*
X161793345Y-94322989D01*
X161803289Y-94392147D01*
X161774264Y-94455703D01*
X161725345Y-94490127D01*
X161672364Y-94510651D01*
X161672357Y-94510655D01*
X161498960Y-94618017D01*
X161498958Y-94618019D01*
X161348237Y-94755418D01*
X161225327Y-94918178D01*
X161134422Y-95100739D01*
X161134417Y-95100752D01*
X161078602Y-95296917D01*
X161059785Y-95499999D01*
X161059785Y-95500000D01*
X161078602Y-95703082D01*
X161134417Y-95899247D01*
X161134422Y-95899260D01*
X161225327Y-96081821D01*
X161348237Y-96244581D01*
X161498958Y-96381980D01*
X161498960Y-96381982D01*
X161598141Y-96443392D01*
X161672363Y-96489348D01*
X161862544Y-96563024D01*
X162063024Y-96600500D01*
X162063026Y-96600500D01*
X162266974Y-96600500D01*
X162266976Y-96600500D01*
X162467456Y-96563024D01*
X162657637Y-96489348D01*
X162831041Y-96381981D01*
X162981764Y-96244579D01*
X163104673Y-96081821D01*
X163195582Y-95899250D01*
X163251397Y-95703083D01*
X163270215Y-95500000D01*
X163264115Y-95434174D01*
X163251397Y-95296917D01*
X163238048Y-95250000D01*
X163195582Y-95100750D01*
X163195159Y-95099901D01*
X163116225Y-94941379D01*
X163104673Y-94918179D01*
X163045704Y-94840091D01*
X162981762Y-94755418D01*
X162831041Y-94618019D01*
X162831039Y-94618017D01*
X162657642Y-94510655D01*
X162657635Y-94510651D01*
X162604655Y-94490127D01*
X162549253Y-94447554D01*
X162525663Y-94381787D01*
X162541374Y-94313707D01*
X162591398Y-94264928D01*
X162649449Y-94250500D01*
X169184108Y-94250500D01*
X169246519Y-94250500D01*
X169253471Y-94250695D01*
X169294188Y-94252981D01*
X169550900Y-94267397D01*
X169564703Y-94268953D01*
X169828103Y-94313707D01*
X169854953Y-94318269D01*
X169868510Y-94321363D01*
X170151413Y-94402866D01*
X170164537Y-94407459D01*
X170335518Y-94478281D01*
X170413666Y-94510651D01*
X170436527Y-94520120D01*
X170449049Y-94526149D01*
X170478863Y-94542627D01*
X170706726Y-94668563D01*
X170718500Y-94675961D01*
X170958604Y-94846323D01*
X170969476Y-94854993D01*
X171188997Y-95051169D01*
X171198830Y-95061002D01*
X171395006Y-95280523D01*
X171403676Y-95291395D01*
X171574038Y-95531499D01*
X171581436Y-95543273D01*
X171723846Y-95800943D01*
X171729879Y-95813472D01*
X171842540Y-96085462D01*
X171847133Y-96098586D01*
X171928636Y-96381489D01*
X171931730Y-96395046D01*
X171981045Y-96685288D01*
X171982602Y-96699106D01*
X171999305Y-96996527D01*
X171999500Y-97003480D01*
X171999500Y-99996519D01*
X171999305Y-100003472D01*
X171982602Y-100300893D01*
X171981045Y-100314711D01*
X171931730Y-100604953D01*
X171928636Y-100618510D01*
X171847133Y-100901413D01*
X171842540Y-100914537D01*
X171729879Y-101186527D01*
X171723846Y-101199056D01*
X171581436Y-101456726D01*
X171574038Y-101468500D01*
X171403676Y-101708604D01*
X171395006Y-101719476D01*
X171198830Y-101938997D01*
X171188997Y-101948830D01*
X170969476Y-102145006D01*
X170958604Y-102153676D01*
X170718500Y-102324038D01*
X170706726Y-102331436D01*
X170449056Y-102473846D01*
X170436527Y-102479879D01*
X170164537Y-102592540D01*
X170151413Y-102597133D01*
X169868510Y-102678636D01*
X169854953Y-102681730D01*
X169564711Y-102731045D01*
X169550893Y-102732602D01*
X169253472Y-102749305D01*
X169246519Y-102749500D01*
X150003481Y-102749500D01*
X149996528Y-102749305D01*
X149699106Y-102732602D01*
X149685288Y-102731045D01*
X149395046Y-102681730D01*
X149381489Y-102678636D01*
X149098586Y-102597133D01*
X149085462Y-102592540D01*
X148813472Y-102479879D01*
X148800943Y-102473846D01*
X148543273Y-102331436D01*
X148531499Y-102324038D01*
X148291395Y-102153676D01*
X148280523Y-102145006D01*
X148146795Y-102025499D01*
X148061000Y-101948828D01*
X148051169Y-101938997D01*
X148049594Y-101937235D01*
X147854993Y-101719476D01*
X147846323Y-101708604D01*
X147675961Y-101468500D01*
X147668563Y-101456726D01*
X147596525Y-101326384D01*
X147526149Y-101199049D01*
X147520120Y-101186527D01*
X147407459Y-100914537D01*
X147402866Y-100901413D01*
X147358005Y-100745698D01*
X147321362Y-100618508D01*
X147318269Y-100604953D01*
X147316849Y-100596596D01*
X147268953Y-100314703D01*
X147267397Y-100300900D01*
X147250695Y-100003471D01*
X147250500Y-99996519D01*
X147250500Y-99878711D01*
X148149500Y-99878711D01*
X148149500Y-100121288D01*
X148181161Y-100361785D01*
X148243947Y-100596104D01*
X148318256Y-100775500D01*
X148336776Y-100820212D01*
X148458064Y-101030289D01*
X148458066Y-101030292D01*
X148458067Y-101030293D01*
X148605733Y-101222736D01*
X148605739Y-101222743D01*
X148777256Y-101394260D01*
X148777263Y-101394266D01*
X148889327Y-101480255D01*
X148969711Y-101541936D01*
X149179788Y-101663224D01*
X149403900Y-101756054D01*
X149638211Y-101818838D01*
X149818586Y-101842584D01*
X149878711Y-101850500D01*
X149878712Y-101850500D01*
X150121289Y-101850500D01*
X150169388Y-101844167D01*
X150361789Y-101818838D01*
X150596100Y-101756054D01*
X150820212Y-101663224D01*
X151030289Y-101541936D01*
X151222738Y-101394265D01*
X151394265Y-101222738D01*
X151431958Y-101173615D01*
X154024500Y-101173615D01*
X154024500Y-101326384D01*
X154054300Y-101476197D01*
X154054302Y-101476205D01*
X154112759Y-101617334D01*
X154112764Y-101617343D01*
X154197629Y-101744351D01*
X154197632Y-101744355D01*
X154305644Y-101852367D01*
X154305648Y-101852370D01*
X154432656Y-101937235D01*
X154432662Y-101937238D01*
X154432663Y-101937239D01*
X154573795Y-101995698D01*
X154723615Y-102025499D01*
X154723619Y-102025500D01*
X154723620Y-102025500D01*
X155326381Y-102025500D01*
X155326382Y-102025499D01*
X155476205Y-101995698D01*
X155617337Y-101937239D01*
X155744352Y-101852370D01*
X155852370Y-101744352D01*
X155937239Y-101617337D01*
X155995698Y-101476205D01*
X156025500Y-101326380D01*
X156025500Y-101173620D01*
X155995698Y-101023795D01*
X155985842Y-101000000D01*
X163004647Y-101000000D01*
X163944670Y-101000000D01*
X163924925Y-101019745D01*
X163875556Y-101105255D01*
X163850000Y-101200630D01*
X163850000Y-101299370D01*
X163875556Y-101394745D01*
X163924925Y-101480255D01*
X163944670Y-101500000D01*
X163004647Y-101500000D01*
X163014387Y-101548974D01*
X163014390Y-101548983D01*
X163091652Y-101735513D01*
X163091659Y-101735526D01*
X163203829Y-101903399D01*
X163203832Y-101903403D01*
X163346596Y-102046167D01*
X163346600Y-102046170D01*
X163514473Y-102158340D01*
X163514486Y-102158347D01*
X163701016Y-102235609D01*
X163701025Y-102235612D01*
X163899041Y-102274999D01*
X163899045Y-102275000D01*
X163975000Y-102275000D01*
X163975000Y-101530330D01*
X163994745Y-101550075D01*
X164080255Y-101599444D01*
X164175630Y-101625000D01*
X164274370Y-101625000D01*
X164369745Y-101599444D01*
X164455255Y-101550075D01*
X164475000Y-101530330D01*
X164475000Y-102275000D01*
X164550955Y-102275000D01*
X164550958Y-102274999D01*
X164748974Y-102235612D01*
X164748983Y-102235609D01*
X164935513Y-102158347D01*
X164935526Y-102158340D01*
X165103399Y-102046170D01*
X165103403Y-102046167D01*
X165246167Y-101903403D01*
X165246170Y-101903399D01*
X165358340Y-101735526D01*
X165358347Y-101735513D01*
X165435609Y-101548983D01*
X165435612Y-101548974D01*
X165445353Y-101500000D01*
X164505330Y-101500000D01*
X164525075Y-101480255D01*
X164574444Y-101394745D01*
X164600000Y-101299370D01*
X164600000Y-101200630D01*
X164574444Y-101105255D01*
X164525075Y-101019745D01*
X164505330Y-101000000D01*
X165445353Y-101000000D01*
X165435612Y-100951025D01*
X165435609Y-100951016D01*
X165358347Y-100764486D01*
X165358340Y-100764473D01*
X165246170Y-100596600D01*
X165246167Y-100596596D01*
X165160353Y-100510782D01*
X165126868Y-100449459D01*
X165131852Y-100379767D01*
X165134920Y-100372970D01*
X165134908Y-100372965D01*
X165164761Y-100300893D01*
X165195698Y-100226205D01*
X165225500Y-100076380D01*
X165225500Y-99923620D01*
X165216567Y-99878711D01*
X167399500Y-99878711D01*
X167399500Y-100121288D01*
X167431161Y-100361785D01*
X167493947Y-100596104D01*
X167568256Y-100775500D01*
X167586776Y-100820212D01*
X167708064Y-101030289D01*
X167708066Y-101030292D01*
X167708067Y-101030293D01*
X167855733Y-101222736D01*
X167855739Y-101222743D01*
X168027256Y-101394260D01*
X168027263Y-101394266D01*
X168139327Y-101480255D01*
X168219711Y-101541936D01*
X168429788Y-101663224D01*
X168653900Y-101756054D01*
X168888211Y-101818838D01*
X169068586Y-101842584D01*
X169128711Y-101850500D01*
X169128712Y-101850500D01*
X169371289Y-101850500D01*
X169419388Y-101844167D01*
X169611789Y-101818838D01*
X169846100Y-101756054D01*
X170070212Y-101663224D01*
X170280289Y-101541936D01*
X170472738Y-101394265D01*
X170644265Y-101222738D01*
X170791936Y-101030289D01*
X170913224Y-100820212D01*
X171006054Y-100596100D01*
X171068838Y-100361789D01*
X171100500Y-100121288D01*
X171100500Y-99878712D01*
X171068838Y-99638211D01*
X171006054Y-99403900D01*
X171005846Y-99403399D01*
X170983165Y-99348642D01*
X170913224Y-99179788D01*
X170791936Y-98969711D01*
X170681955Y-98826381D01*
X170644266Y-98777263D01*
X170644260Y-98777256D01*
X170472743Y-98605739D01*
X170472736Y-98605733D01*
X170280293Y-98458067D01*
X170280292Y-98458066D01*
X170280289Y-98458064D01*
X170070212Y-98336776D01*
X170070205Y-98336773D01*
X169846104Y-98243947D01*
X169611785Y-98181161D01*
X169371289Y-98149500D01*
X169371288Y-98149500D01*
X169128712Y-98149500D01*
X169128711Y-98149500D01*
X168888214Y-98181161D01*
X168653895Y-98243947D01*
X168429794Y-98336773D01*
X168429785Y-98336777D01*
X168247851Y-98441817D01*
X168231919Y-98451016D01*
X168219706Y-98458067D01*
X168027263Y-98605733D01*
X168027256Y-98605739D01*
X167855739Y-98777256D01*
X167855733Y-98777263D01*
X167708067Y-98969706D01*
X167586777Y-99179785D01*
X167586773Y-99179794D01*
X167493947Y-99403895D01*
X167431161Y-99638214D01*
X167399500Y-99878711D01*
X165216567Y-99878711D01*
X165195698Y-99773795D01*
X165137239Y-99632663D01*
X165137238Y-99632662D01*
X165137235Y-99632656D01*
X165052370Y-99505648D01*
X165052367Y-99505644D01*
X165009404Y-99462682D01*
X164975918Y-99401359D01*
X164980902Y-99331668D01*
X165009404Y-99287318D01*
X165052367Y-99244355D01*
X165052370Y-99244352D01*
X165137239Y-99117337D01*
X165195698Y-98976205D01*
X165225500Y-98826380D01*
X165225500Y-98673620D01*
X165195698Y-98523795D01*
X165137239Y-98382663D01*
X165137238Y-98382662D01*
X165137235Y-98382656D01*
X165052370Y-98255648D01*
X165052367Y-98255644D01*
X164944355Y-98147632D01*
X164944351Y-98147629D01*
X164817343Y-98062764D01*
X164817334Y-98062759D01*
X164676205Y-98004302D01*
X164676197Y-98004300D01*
X164526384Y-97974500D01*
X164526380Y-97974500D01*
X163923620Y-97974500D01*
X163923615Y-97974500D01*
X163773802Y-98004300D01*
X163773794Y-98004302D01*
X163632665Y-98062759D01*
X163632656Y-98062764D01*
X163505648Y-98147629D01*
X163505644Y-98147632D01*
X163397632Y-98255644D01*
X163397629Y-98255648D01*
X163312764Y-98382656D01*
X163312759Y-98382665D01*
X163254302Y-98523794D01*
X163254300Y-98523802D01*
X163224500Y-98673615D01*
X163224500Y-98826384D01*
X163254300Y-98976197D01*
X163254302Y-98976205D01*
X163312759Y-99117334D01*
X163312764Y-99117343D01*
X163397629Y-99244351D01*
X163397632Y-99244355D01*
X163440596Y-99287319D01*
X163474081Y-99348642D01*
X163469097Y-99418334D01*
X163440596Y-99462681D01*
X163397632Y-99505644D01*
X163397629Y-99505648D01*
X163312764Y-99632656D01*
X163312759Y-99632665D01*
X163254302Y-99773794D01*
X163254300Y-99773802D01*
X163224500Y-99923615D01*
X163224500Y-100076384D01*
X163254300Y-100226197D01*
X163254302Y-100226205D01*
X163315092Y-100372965D01*
X163313217Y-100373741D01*
X163325565Y-100433054D01*
X163300563Y-100498297D01*
X163289647Y-100510782D01*
X163203829Y-100596600D01*
X163091659Y-100764473D01*
X163091652Y-100764486D01*
X163014390Y-100951016D01*
X163014387Y-100951025D01*
X163004647Y-101000000D01*
X155985842Y-101000000D01*
X155937239Y-100882663D01*
X155937238Y-100882662D01*
X155937235Y-100882656D01*
X155852370Y-100755648D01*
X155852367Y-100755644D01*
X155744355Y-100647632D01*
X155744351Y-100647629D01*
X155617343Y-100562764D01*
X155617334Y-100562759D01*
X155476205Y-100504302D01*
X155476197Y-100504300D01*
X155326384Y-100474500D01*
X155326380Y-100474500D01*
X154723620Y-100474500D01*
X154723615Y-100474500D01*
X154573802Y-100504300D01*
X154573794Y-100504302D01*
X154432665Y-100562759D01*
X154432656Y-100562764D01*
X154305648Y-100647629D01*
X154305644Y-100647632D01*
X154197632Y-100755644D01*
X154197629Y-100755648D01*
X154112764Y-100882656D01*
X154112759Y-100882665D01*
X154054302Y-101023794D01*
X154054300Y-101023802D01*
X154024500Y-101173615D01*
X151431958Y-101173615D01*
X151541936Y-101030289D01*
X151663224Y-100820212D01*
X151756054Y-100596100D01*
X151818838Y-100361789D01*
X151850500Y-100121288D01*
X151850500Y-99878712D01*
X151818838Y-99638211D01*
X151756054Y-99403900D01*
X151755846Y-99403399D01*
X151733165Y-99348642D01*
X151663224Y-99179788D01*
X151541936Y-98969711D01*
X151431955Y-98826381D01*
X151394266Y-98777263D01*
X151394260Y-98777256D01*
X151222743Y-98605739D01*
X151222736Y-98605733D01*
X151084941Y-98500000D01*
X153804647Y-98500000D01*
X154744670Y-98500000D01*
X154724925Y-98519745D01*
X154675556Y-98605255D01*
X154650000Y-98700630D01*
X154650000Y-98799370D01*
X154675556Y-98894745D01*
X154724925Y-98980255D01*
X154744670Y-99000000D01*
X153804647Y-99000000D01*
X153814387Y-99048974D01*
X153814390Y-99048983D01*
X153891652Y-99235513D01*
X153891659Y-99235526D01*
X154003829Y-99403399D01*
X154003832Y-99403403D01*
X154146596Y-99546167D01*
X154146600Y-99546170D01*
X154314473Y-99658340D01*
X154314486Y-99658347D01*
X154501016Y-99735609D01*
X154501025Y-99735612D01*
X154699041Y-99774999D01*
X154699045Y-99775000D01*
X154775000Y-99775000D01*
X154775000Y-99030330D01*
X154794745Y-99050075D01*
X154880255Y-99099444D01*
X154975630Y-99125000D01*
X155074370Y-99125000D01*
X155169745Y-99099444D01*
X155255255Y-99050075D01*
X155275000Y-99030330D01*
X155275000Y-99775000D01*
X155350955Y-99775000D01*
X155350958Y-99774999D01*
X155548974Y-99735612D01*
X155548983Y-99735609D01*
X155735513Y-99658347D01*
X155735526Y-99658340D01*
X155903399Y-99546170D01*
X155903403Y-99546167D01*
X156046167Y-99403403D01*
X156046170Y-99403399D01*
X156158340Y-99235526D01*
X156158347Y-99235513D01*
X156235609Y-99048983D01*
X156235612Y-99048974D01*
X156245353Y-99000000D01*
X155305330Y-99000000D01*
X155325075Y-98980255D01*
X155374444Y-98894745D01*
X155400000Y-98799370D01*
X155400000Y-98700630D01*
X155374444Y-98605255D01*
X155325075Y-98519745D01*
X155305330Y-98500000D01*
X156245353Y-98500000D01*
X156235612Y-98451025D01*
X156235609Y-98451016D01*
X156158347Y-98264486D01*
X156158340Y-98264473D01*
X156046170Y-98096600D01*
X156046167Y-98096596D01*
X155903403Y-97953832D01*
X155903399Y-97953829D01*
X155735526Y-97841659D01*
X155735513Y-97841652D01*
X155548983Y-97764390D01*
X155548974Y-97764387D01*
X155350958Y-97725000D01*
X155275000Y-97725000D01*
X155275000Y-98469670D01*
X155255255Y-98449925D01*
X155169745Y-98400556D01*
X155074370Y-98375000D01*
X154975630Y-98375000D01*
X154880255Y-98400556D01*
X154794745Y-98449925D01*
X154775000Y-98469670D01*
X154775000Y-97725000D01*
X154699041Y-97725000D01*
X154501025Y-97764387D01*
X154501016Y-97764390D01*
X154314486Y-97841652D01*
X154314473Y-97841659D01*
X154146600Y-97953829D01*
X154146596Y-97953832D01*
X154003832Y-98096596D01*
X154003829Y-98096600D01*
X153891659Y-98264473D01*
X153891652Y-98264486D01*
X153814390Y-98451016D01*
X153814387Y-98451025D01*
X153804647Y-98500000D01*
X151084941Y-98500000D01*
X151030293Y-98458067D01*
X151030292Y-98458066D01*
X151030289Y-98458064D01*
X150820212Y-98336776D01*
X150820205Y-98336773D01*
X150596104Y-98243947D01*
X150361785Y-98181161D01*
X150121289Y-98149500D01*
X150121288Y-98149500D01*
X149878712Y-98149500D01*
X149878711Y-98149500D01*
X149638214Y-98181161D01*
X149403895Y-98243947D01*
X149179794Y-98336773D01*
X149179785Y-98336777D01*
X148997851Y-98441817D01*
X148981919Y-98451016D01*
X148969706Y-98458067D01*
X148777263Y-98605733D01*
X148777256Y-98605739D01*
X148605739Y-98777256D01*
X148605733Y-98777263D01*
X148458067Y-98969706D01*
X148336777Y-99179785D01*
X148336773Y-99179794D01*
X148243947Y-99403895D01*
X148181161Y-99638214D01*
X148149500Y-99878711D01*
X147250500Y-99878711D01*
X147250500Y-97003480D01*
X147250695Y-96996528D01*
X147254200Y-96934108D01*
X147267398Y-96699097D01*
X147268952Y-96685298D01*
X147318269Y-96395041D01*
X147321363Y-96381489D01*
X147402866Y-96098586D01*
X147407459Y-96085462D01*
X147449662Y-95983574D01*
X147520123Y-95813463D01*
X147526145Y-95800957D01*
X147668566Y-95543267D01*
X147675961Y-95531499D01*
X147698311Y-95500000D01*
X147846330Y-95291385D01*
X147854985Y-95280531D01*
X148051179Y-95060991D01*
X148060991Y-95051179D01*
X148280531Y-94854985D01*
X148291385Y-94846330D01*
X148531504Y-94675957D01*
X148543267Y-94668566D01*
X148800957Y-94526145D01*
X148813463Y-94520123D01*
X149085462Y-94407459D01*
X149098582Y-94402867D01*
X149381494Y-94321361D01*
X149395041Y-94318269D01*
X149685298Y-94268952D01*
X149699097Y-94267398D01*
X149959562Y-94252770D01*
X149996529Y-94250695D01*
X150003481Y-94250500D01*
X150065892Y-94250500D01*
X155671764Y-94250500D01*
X155738803Y-94270185D01*
G37*
G04 #@! TD.AperFunction*
M02*
